<svg xmlns="http://www.w3.org/2000/svg" xmlns:xlink="http://www.w3.org/1999/xlink" version="1.1" viewBox="0 0 172 172"><g fill="none" fill-rule="nonzero" stroke="none" stroke-width="1" stroke-linecap="butt" stroke-linejoin="miter" stroke-miterlimit="10" stroke-dasharray="" stroke-dashoffset="0" font-family="none" font-weight="none" font-size="none" text-anchor="none" style="mix-blend-mode: normal"><path d="M0,172v-172h172v172z" fill="none"/><path d="M86,172c-47.49649,0 -86,-38.50351 -86,-86v0c0,-47.49649 38.50351,-86 86,-86v0c47.49649,0 86,38.50351 86,86v0c0,47.49649 -38.50351,86 -86,86z" fill="#333333"/><g fill="#ff9b0d"><path d="M47.3,34.4c-7.0735,0 -12.9,5.8265 -12.9,12.9v20.06667c0,7.0735 5.8265,12.9 12.9,12.9h20.06667c7.0735,0 12.9,-5.8265 12.9,-12.9v-20.06667c0,-7.0735 -5.8265,-12.9 -12.9,-12.9zM104.63333,34.4c-7.0735,0 -12.9,5.8265 -12.9,12.9v20.06667c0,7.0735 5.8265,12.9 12.9,12.9h20.06667c7.0735,0 12.9,-5.8265 12.9,-12.9v-20.06667c0,-7.0735 -5.8265,-12.9 -12.9,-12.9zM47.3,43h20.06667c2.42663,0 4.3,1.87337 4.3,4.3v20.06667c0,2.42663 -1.87337,4.3 -4.3,4.3h-20.06667c-2.42663,0 -4.3,-1.87337 -4.3,-4.3v-20.06667c0,-2.42663 1.87337,-4.3 4.3,-4.3zM104.63333,43h20.06667c2.42663,0 4.3,1.87337 4.3,4.3v20.06667c0,2.42663 -1.87337,4.3 -4.3,4.3h-20.06667c-2.42663,0 -4.3,-1.87337 -4.3,-4.3v-20.06667c0,-2.42663 1.87337,-4.3 4.3,-4.3zM51.6,51.6v11.46667h11.46667v-11.46667zM108.93333,51.6v11.46667h11.46667v-11.46667zM47.3,91.73333c-7.0735,0 -12.9,5.8265 -12.9,12.9v20.06667c0,7.0735 5.8265,12.9 12.9,12.9h20.06667c7.0735,0 12.9,-5.8265 12.9,-12.9v-20.06667c0,-7.0735 -5.8265,-12.9 -12.9,-12.9zM91.73333,91.73333v15.76667h15.76667v-15.76667zM107.5,107.5v14.33333h14.33333v-14.33333zM121.83333,107.5h15.76667v-15.76667h-15.76667zM121.83333,121.83333v15.76667h15.76667v-15.76667zM107.5,121.83333h-15.76667v15.76667h15.76667zM47.3,100.33333h20.06667c2.42663,0 4.3,1.87337 4.3,4.3v20.06667c0,2.42663 -1.87337,4.3 -4.3,4.3h-20.06667c-2.42663,0 -4.3,-1.87337 -4.3,-4.3v-20.06667c0,-2.42663 1.87337,-4.3 4.3,-4.3zM51.6,108.93333v11.46667h11.46667v-11.46667z"/></g><path d="M86,172c-47.49649,0 -86,-38.50351 -86,-86v0c0,-47.49649 38.50351,-86 86,-86v0c47.49649,0 86,38.50351 86,86v0c0,47.49649 -38.50351,86 -86,86z" fill="none"/><path d="M86,168.56c-45.59663,0 -82.56,-36.96337 -82.56,-82.56v0c0,-45.59663 36.96337,-82.56 82.56,-82.56v0c45.59663,0 82.56,36.96337 82.56,82.56v0c0,45.59663 -36.96337,82.56 -82.56,82.56z" fill="none"/><path d="M86,172c-47.49649,0 -86,-38.50351 -86,-86v0c0,-47.49649 38.50351,-86 86,-86v0c47.49649,0 86,38.50351 86,86v0c0,47.49649 -38.50351,86 -86,86z" fill="none"/><path d="M86,168.56c-45.59663,0 -82.56,-36.96337 -82.56,-82.56v0c0,-45.59663 36.96337,-82.56 82.56,-82.56v0c45.59663,0 82.56,36.96337 82.56,82.56v0c0,45.59663 -36.96337,82.56 -82.56,82.56z" fill="none"/></g></svg>